<svg xmlns="http://www.w3.org/2000/svg" width="900" height="460" font-family="monospace" font-size="12">
<rect width="900" height="460" fill="white"/>
<text x="70" y="22" font-size="15" font-weight="bold">RIDER (iii) — continuous uncertainty grade past ~p50</text>
<text x="70" y="40" font-size="11" fill="#555">grade = RSS(bootstrap, holdout) kernel-smoothed; rises steeply past p50; stamps: code_sha=e4177c21934148c19d9cec3c015fee5d284</text>
<rect x="70" y="54" width="630" height="354" fill="none" stroke="#000"/>
<line x1="70" y1="408.0" x2="700" y2="408.0" stroke="#eee"/>
<text x="62" y="412.0" text-anchor="end" fill="#333">1.55</text>
<line x1="70" y1="337.2" x2="700" y2="337.2" stroke="#eee"/>
<text x="62" y="341.2" text-anchor="end" fill="#333">15.518</text>
<line x1="70" y1="266.4" x2="700" y2="266.4" stroke="#eee"/>
<text x="62" y="270.4" text-anchor="end" fill="#333">29.486</text>
<line x1="70" y1="195.6" x2="700" y2="195.6" stroke="#eee"/>
<text x="62" y="199.6" text-anchor="end" fill="#333">43.454</text>
<line x1="70" y1="124.8" x2="700" y2="124.8" stroke="#eee"/>
<text x="62" y="128.8" text-anchor="end" fill="#333">57.422</text>
<line x1="70" y1="54.0" x2="700" y2="54.0" stroke="#eee"/>
<text x="62" y="58.0" text-anchor="end" fill="#333">71.39</text>
<line x1="70.0" y1="54" x2="70.0" y2="408" stroke="#f4f4f4"/>
<text x="70.0" y="424" text-anchor="middle" fill="#333">40</text>
<line x1="176.8" y1="54" x2="176.8" y2="408" stroke="#f4f4f4"/>
<text x="176.8" y="424" text-anchor="middle" fill="#333">50</text>
<line x1="283.6" y1="54" x2="283.6" y2="408" stroke="#f4f4f4"/>
<text x="283.6" y="424" text-anchor="middle" fill="#333">60</text>
<line x1="390.3" y1="54" x2="390.3" y2="408" stroke="#f4f4f4"/>
<text x="390.3" y="424" text-anchor="middle" fill="#333">70</text>
<line x1="497.1" y1="54" x2="497.1" y2="408" stroke="#f4f4f4"/>
<text x="497.1" y="424" text-anchor="middle" fill="#333">80</text>
<line x1="603.9" y1="54" x2="603.9" y2="408" stroke="#f4f4f4"/>
<text x="603.9" y="424" text-anchor="middle" fill="#333">90</text>
<line x1="700.0" y1="54" x2="700.0" y2="408" stroke="#f4f4f4"/>
<text x="700.0" y="424" text-anchor="middle" fill="#333">99</text>
<text x="385.0" y="446" text-anchor="middle">exact pick</text>
<text x="18" y="231.0" text-anchor="middle" transform="rotate(-90 18 231.0)">uncertainty (relative %)</text>
<line x1="70" y1="327.9" x2="700" y2="327.9" stroke="#999" stroke-dasharray="4 3"/>
<polyline points="70.0,289.9 80.7,287.7 91.4,285.3 102.0,282.9 112.7,280.7 123.4,278.7 134.1,277.1 144.7,275.9 155.4,274.9 166.1,274.2 176.8,273.6 187.5,273.0 198.1,272.2 208.8,271.1 219.5,269.9 230.2,268.4 240.8,266.7 251.5,264.9 262.2,263.0 272.9,261.1 283.6,259.1 294.2,257.1 304.9,254.9 315.6,252.6 326.3,250.2 336.9,247.5 347.6,244.7 358.3,241.8 369.0,238.9 379.7,236.1 390.3,233.5 401.0,231.1 411.7,229.1 422.4,227.4 433.1,225.9 443.7,224.7 454.4,223.7 465.1,222.7 475.8,221.8 486.4,220.9 497.1,220.0 507.8,219.0 518.5,218.0 529.2,217.1 539.8,216.2 550.5,215.4 561.2,214.8 571.9,214.3 582.5,214.1 593.2,214.0 603.9,214.2 614.6,214.4 625.3,214.9 635.9,215.4 646.6,216.1 657.3,216.9 668.0,217.6 678.6,218.4 689.3,219.2 700.0,220.0" fill="none" stroke="#000" stroke-width="1.8"/>
<rect x="714" y="58" width="16" height="3" fill="#000"/>
<text x="734" y="63" font-size="11">uncertainty grade U(p) (smoothed)</text>
<polyline points="70.0,280.2 80.7,303.6 91.4,320.2 102.0,271.2 112.7,282.3 123.4,248.1 134.1,264.0 144.7,312.1 155.4,284.5 166.1,258.6 176.8,236.9 187.5,303.9 198.1,256.6 208.8,298.1 219.5,311.6 230.2,215.2 240.8,294.8 251.5,286.8 262.2,244.0 272.9,288.0 283.6,172.0 294.2,288.1 304.9,293.3 315.6,268.5 326.3,257.8 336.9,213.4 347.6,247.9 358.3,276.2 369.0,254.6 379.7,286.8 390.3,195.9 401.0,231.4 411.7,227.6 422.4,113.1 433.1,228.5 443.7,240.5 454.4,249.8 465.1,224.7 475.8,201.1 486.4,252.2 497.1,217.9 507.8,229.0 518.5,273.8 529.2,192.7 539.8,300.1 550.5,170.2 561.2,270.8 571.9,54.0 582.5,233.6 593.2,88.9 603.9,245.3 614.6,227.0 625.3,203.8 635.9,316.9 646.6,226.1 657.3,192.3 668.0,250.2 678.6,161.1 689.3,243.0 700.0,374.2" fill="none" stroke="#d62728" stroke-width="1.8" stroke-dasharray="5 4"/>
<rect x="714" y="78" width="16" height="3" fill="#d62728"/>
<text x="734" y="83" font-size="11">  sampling: cohort-boot rel-SD</text>
<polyline points="70.0,390.9 80.7,392.8 91.4,395.7 102.0,398.0 112.7,400.4 123.4,403.0 134.1,404.1 144.7,404.0 155.4,403.9 166.1,403.5 176.8,402.5 187.5,401.7 198.1,401.1 208.8,400.4 219.5,400.1 230.2,400.2 240.8,400.3 251.5,400.5 262.2,401.0 272.9,401.6 283.6,402.4 294.2,401.9 304.9,401.3 315.6,400.9 326.3,400.7 336.9,400.6 347.6,400.4 358.3,400.2 369.0,400.1 379.7,400.4 390.3,400.8 401.0,401.3 411.7,401.3 422.4,401.0 433.1,400.7 443.7,400.5 454.4,400.4 465.1,400.4 475.8,400.6 486.4,400.7 497.1,400.8 507.8,401.1 518.5,401.5 529.2,402.0 539.8,402.6 550.5,403.3 561.2,404.0 571.9,404.8 582.5,405.5 593.2,406.2 603.9,406.8 614.6,407.1 625.3,407.5 635.9,407.8 646.6,407.8 657.3,407.9 668.0,408.0 678.6,408.0 689.3,408.0 700.0,408.0" fill="none" stroke="#1f77b4" stroke-width="1.8" stroke-dasharray="5 4"/>
<rect x="714" y="98" width="16" height="3" fill="#1f77b4"/>
<text x="734" y="103" font-size="11">  generalization: LOCO half-width</text>
<text x="714" y="132" font-size="10" fill="#666">dashed line = top (p&lt;=30) grade</text>
<text x="714" y="147" font-size="10" fill="#666">pick99 sink down-weighted</text>
<text x="714" y="162" font-size="10" fill="#666">no bands</text>
</svg>