<svg xmlns="http://www.w3.org/2000/svg" width="900" height="460" font-family="monospace" font-size="12">
<rect width="900" height="460" fill="white"/>
<text x="70" y="22" font-size="15" font-weight="bold">RIDER (i) — calibration residual, per exact pick (finding, not a gate)</text>
<text x="70" y="40" font-size="11" fill="#555">&gt;0 = curve under-prices realized; &lt;0 = over-prices. tail over-pricing onset ~pick 49</text>
<rect x="70" y="54" width="630" height="354" fill="none" stroke="#000"/>
<line x1="70" y1="408.0" x2="700" y2="408.0" stroke="#eee"/>
<text x="62" y="412.0" text-anchor="end" fill="#333">-45.93</text>
<line x1="70" y1="337.2" x2="700" y2="337.2" stroke="#eee"/>
<text x="62" y="341.2" text-anchor="end" fill="#333">-31.966</text>
<line x1="70" y1="266.4" x2="700" y2="266.4" stroke="#eee"/>
<text x="62" y="270.4" text-anchor="end" fill="#333">-18.002</text>
<line x1="70" y1="195.6" x2="700" y2="195.6" stroke="#eee"/>
<text x="62" y="199.6" text-anchor="end" fill="#333">-4.038</text>
<line x1="70" y1="124.8" x2="700" y2="124.8" stroke="#eee"/>
<text x="62" y="128.8" text-anchor="end" fill="#333">9.926</text>
<line x1="70" y1="54.0" x2="700" y2="54.0" stroke="#eee"/>
<text x="62" y="58.0" text-anchor="end" fill="#333">23.89</text>
<line x1="70.0" y1="54" x2="70.0" y2="408" stroke="#f4f4f4"/>
<text x="70.0" y="424" text-anchor="middle" fill="#333">1</text>
<line x1="127.9" y1="54" x2="127.9" y2="408" stroke="#f4f4f4"/>
<text x="127.9" y="424" text-anchor="middle" fill="#333">10</text>
<line x1="192.1" y1="54" x2="192.1" y2="408" stroke="#f4f4f4"/>
<text x="192.1" y="424" text-anchor="middle" fill="#333">20</text>
<line x1="256.4" y1="54" x2="256.4" y2="408" stroke="#f4f4f4"/>
<text x="256.4" y="424" text-anchor="middle" fill="#333">30</text>
<line x1="320.7" y1="54" x2="320.7" y2="408" stroke="#f4f4f4"/>
<text x="320.7" y="424" text-anchor="middle" fill="#333">40</text>
<line x1="385.0" y1="54" x2="385.0" y2="408" stroke="#f4f4f4"/>
<text x="385.0" y="424" text-anchor="middle" fill="#333">50</text>
<line x1="449.3" y1="54" x2="449.3" y2="408" stroke="#f4f4f4"/>
<text x="449.3" y="424" text-anchor="middle" fill="#333">60</text>
<line x1="513.6" y1="54" x2="513.6" y2="408" stroke="#f4f4f4"/>
<text x="513.6" y="424" text-anchor="middle" fill="#333">70</text>
<line x1="577.9" y1="54" x2="577.9" y2="408" stroke="#f4f4f4"/>
<text x="577.9" y="424" text-anchor="middle" fill="#333">80</text>
<line x1="642.1" y1="54" x2="642.1" y2="408" stroke="#f4f4f4"/>
<text x="642.1" y="424" text-anchor="middle" fill="#333">90</text>
<line x1="700.0" y1="54" x2="700.0" y2="408" stroke="#f4f4f4"/>
<text x="700.0" y="424" text-anchor="middle" fill="#333">99</text>
<text x="385.0" y="446" text-anchor="middle">exact pick</text>
<text x="18" y="231.0" text-anchor="middle" transform="rotate(-90 18 231.0)">signed residual  100*(realized-curve)/curve  [%]</text>
<line x1="70" y1="175.1" x2="700" y2="175.1" stroke="#999" stroke-dasharray="4 3"/>
<polyline points="70.0,251.2 76.4,200.4 82.9,208.7 89.3,193.3 95.7,206.4 102.1,261.2 108.6,269.9 115.0,201.1 121.4,170.5 127.9,183.5 134.3,185.6 140.7,155.5 147.1,138.9 153.6,150.5 160.0,172.4 166.4,177.5 172.9,152.8 179.3,113.3 185.7,83.2 192.1,72.6 198.6,75.1 205.0,84.1 211.4,92.9 217.9,98.2 224.3,97.9 230.7,91.9 237.1,84.2 243.6,79.2 250.0,81.8 256.4,92.2 262.9,107.2 269.3,123.1 275.7,136.2 282.1,144.5 288.6,146.4 295.0,143.3 301.4,136.9 307.9,129.4 314.3,123.5 320.7,119.9 327.1,119.2 333.6,123.1 340.0,130.1 346.4,138.3 352.9,147.5 359.3,156.9 365.7,165.9 372.1,173.4 378.6,180.2 385.0,185.2 391.4,190.4 397.9,195.4 404.3,201.2 410.7,207.4 417.1,213.8 423.6,220.4 430.0,227.7 436.4,234.6 442.9,241.0 449.3,247.4 455.7,253.0 462.1,257.6 468.6,261.5 475.0,264.6 481.4,267.9 487.9,270.0 494.3,272.4 500.7,273.8 507.1,275.7 513.6,277.4 520.0,278.1 526.4,279.4 532.9,280.7 539.3,281.8 545.7,283.0 552.1,284.2 558.6,285.5 565.0,286.3 571.4,288.1 577.9,290.4 584.3,292.9 590.7,295.0 597.1,298.2 603.6,301.6 610.0,305.1 616.4,308.7 622.9,311.4 629.3,315.5 635.7,318.6 642.1,321.4 648.6,324.5 655.0,326.7 661.4,329.2 667.9,331.3 674.3,333.2 680.7,334.6 687.1,335.9 693.6,336.8 700.0,337.5" fill="none" stroke="#1f77b4" stroke-width="1.8"/>
<rect x="714" y="58" width="16" height="3" fill="#1f77b4"/>
<text x="734" y="63" font-size="11">residual %, primary (complete)</text>
<polyline points="70.0,245.2 76.4,192.1 82.9,199.0 89.3,190.1 95.7,205.3 102.1,247.3 108.6,251.0 115.0,187.5 121.4,150.3 127.9,169.5 134.3,177.2 140.7,150.7 147.1,137.1 153.6,148.0 160.0,165.4 166.4,165.5 172.9,138.1 179.3,98.0 185.7,66.9 192.1,54.0 198.6,54.1 205.0,61.7 211.4,70.5 217.9,76.4 224.3,76.7 230.7,71.0 237.1,63.7 243.6,59.3 250.0,62.9 256.4,74.8 262.9,91.5 269.3,109.1 275.7,123.5 282.1,132.3 288.6,134.2 295.0,130.6 301.4,123.6 307.9,115.7 314.3,109.8 320.7,107.0 327.1,107.9 333.6,114.2 340.0,124.2 346.4,135.8 352.9,148.5 359.3,161.0 365.7,172.7 372.1,182.4 378.6,190.9 385.0,197.0 391.4,202.8 397.9,208.0 404.3,214.0 410.7,220.1 417.1,226.6 423.6,233.1 430.0,240.4 436.4,247.3 442.9,253.5 449.3,259.5 455.7,264.5 462.1,268.3 468.6,271.0 475.0,272.8 481.4,274.5 487.9,274.7 494.3,275.2 500.7,274.5 507.1,274.3 513.6,273.9 520.0,272.7 526.4,272.3 532.9,271.9 539.3,271.7 545.7,271.8 552.1,272.2 558.6,273.0 565.0,273.5 571.4,275.4 577.9,277.8 584.3,280.9 590.7,283.6 597.1,287.5 603.6,291.6 610.0,295.9 616.4,300.2 622.9,303.6 629.3,308.3 635.7,312.0 642.1,315.2 648.6,318.8 655.0,321.1 661.4,323.8 667.9,326.1 674.3,328.0 680.7,329.5 687.1,330.7 693.6,331.6 700.0,332.2" fill="none" stroke="#ff7f0e" stroke-width="1.8"/>
<rect x="714" y="78" width="16" height="3" fill="#ff7f0e"/>
<text x="734" y="83" font-size="11">residual %, fit-era 2004-17</text>
<polyline points="70.0,334.6 76.4,374.6 82.9,397.4 89.3,403.4 95.7,400.0 102.1,384.5 108.6,380.4 115.0,376.1 121.4,379.3 127.9,389.8 134.3,395.4 140.7,393.9 147.1,384.8 153.6,370.6 160.0,359.7 166.4,355.0 172.9,353.5 179.3,352.8 185.7,352.2 192.1,351.5 198.6,348.0 205.0,343.9 211.4,339.0 217.9,334.0 224.3,329.2 230.7,324.9 237.1,320.8 243.6,316.9 250.0,314.0 256.4,311.0 262.9,307.4 269.3,303.7 275.7,298.5 282.1,293.8 288.6,286.5 295.0,280.3 301.4,271.1 307.9,264.1 314.3,257.7 320.7,246.5 327.1,239.5 333.6,227.6 340.0,222.3 346.4,217.3 352.9,204.7 359.3,201.3 365.7,199.2 372.1,197.6 378.6,185.9 385.0,185.0 391.4,185.5 397.9,186.6 404.3,175.7 410.7,178.9 417.1,182.7 423.6,187.0 430.0,192.6 436.4,186.1 442.9,193.4 449.3,202.0 455.7,210.8 462.1,219.7 468.6,228.7 475.0,237.8 481.4,243.1 487.9,253.5 494.3,264.5 500.7,274.5 507.1,284.9 513.6,294.9 520.0,303.8 526.4,313.0 532.9,328.8 539.3,338.1 545.7,346.8 552.1,354.9 558.6,362.4 565.0,368.6 571.4,375.0 577.9,380.8 584.3,386.1 590.7,390.3 597.1,394.7 603.6,398.7 610.0,402.3 616.4,405.5 622.9,407.8 629.3,400.3 635.7,402.9 642.1,405.3 648.6,408.0 655.0,399.6 661.4,402.2 667.9,404.6 674.3,396.4 680.7,398.7 687.1,390.4 693.6,392.4 700.0,394.4" fill="none" stroke="#d62728" stroke-width="1.8" stroke-dasharray="5 4"/>
<rect x="714" y="98" width="16" height="3" fill="#d62728"/>
<text x="734" y="103" font-size="11">residual %, held-out 2003</text>
<polyline points="70.0,292.4 76.4,299.9 82.9,313.7 89.3,318.9 95.7,303.8 102.1,293.2 108.6,279.8 115.0,242.6 121.4,231.3 127.9,258.4 134.3,264.5 140.7,242.8 147.1,206.5 153.6,210.0 160.0,234.0 166.4,247.4 172.9,229.6 179.3,194.1 185.7,169.8 192.1,169.1 198.6,182.8 205.0,201.0 211.4,217.4 217.9,230.9 224.3,241.1 230.7,247.5 237.1,251.1 243.6,253.5 250.0,257.4 256.4,263.4 262.9,270.1 269.3,276.2 275.7,280.2 282.1,281.4 288.6,279.2 295.0,274.8 301.4,269.3 307.9,264.1 314.3,261.2 320.7,260.9 327.1,263.3 333.6,269.7 340.0,278.7 346.4,288.4 352.9,298.6 359.3,308.4 365.7,317.1 372.1,324.0 378.6,329.8 385.0,333.7 391.4,337.3 397.9,340.5 404.3,344.4 410.7,348.4 417.1,352.8 423.6,357.5 430.0,362.8 436.4,368.0 442.9,373.1 449.3,378.2 455.7,382.8 462.1,386.8 468.6,390.1 475.0,392.7 481.4,395.4 487.9,396.9 494.3,398.6 500.7,399.2 507.1,399.9 513.6,400.3 520.0,399.7 526.4,399.4 532.9,398.7 539.3,397.8 545.7,396.6 552.1,395.3 558.6,394.0 565.0,392.0 571.4,390.6 577.9,389.4 584.3,388.4 590.7,387.0 597.1,386.3 603.6,385.9 610.0,385.6 616.4,385.4 622.9,384.8 629.3,385.3 635.7,385.3 642.1,385.2 648.6,385.7 655.0,385.4 661.4,385.7 667.9,385.9 674.3,386.0 680.7,386.0 687.1,385.9 693.6,385.7 700.0,385.4" fill="none" stroke="#9467bd" stroke-width="1.8" stroke-dasharray="5 4"/>
<rect x="714" y="118" width="16" height="3" fill="#9467bd"/>
<text x="734" y="123" font-size="11">washout/exit residual %</text>
<text x="714" y="152" font-size="10" fill="#666">held-out 2003 = 1 cohort (thin)</text>
<text x="714" y="167" font-size="10" fill="#666">no decile bands</text>
</svg>