<svg xmlns="http://www.w3.org/2000/svg" width="900" height="460" font-family="monospace" font-size="12">
<rect width="900" height="460" fill="white"/>
<text x="70" y="22" font-size="15" font-weight="bold">RIDER (i) — predicted (frozen curve) vs realized outcome, per exact pick</text>
<text x="70" y="40" font-size="11" fill="#555">career-complete cohorts &lt;=2017; stamps: code_sha=e4177c21934148c19d9cec3c015fee5d28480102 curve_payloa</text>
<rect x="70" y="54" width="630" height="354" fill="none" stroke="#000"/>
<line x1="70" y1="408.0" x2="700" y2="408.0" stroke="#eee"/>
<text x="62" y="412.0" text-anchor="end" fill="#333">314.7</text>
<line x1="70" y1="337.2" x2="700" y2="337.2" stroke="#eee"/>
<text x="62" y="341.2" text-anchor="end" fill="#333">1209.06</text>
<line x1="70" y1="266.4" x2="700" y2="266.4" stroke="#eee"/>
<text x="62" y="270.4" text-anchor="end" fill="#333">2103.42</text>
<line x1="70" y1="195.6" x2="700" y2="195.6" stroke="#eee"/>
<text x="62" y="199.6" text-anchor="end" fill="#333">2997.78</text>
<line x1="70" y1="124.8" x2="700" y2="124.8" stroke="#eee"/>
<text x="62" y="128.8" text-anchor="end" fill="#333">3892.14</text>
<line x1="70" y1="54.0" x2="700" y2="54.0" stroke="#eee"/>
<text x="62" y="58.0" text-anchor="end" fill="#333">4786.5</text>
<line x1="70.0" y1="54" x2="70.0" y2="408" stroke="#f4f4f4"/>
<text x="70.0" y="424" text-anchor="middle" fill="#333">1</text>
<line x1="127.9" y1="54" x2="127.9" y2="408" stroke="#f4f4f4"/>
<text x="127.9" y="424" text-anchor="middle" fill="#333">10</text>
<line x1="192.1" y1="54" x2="192.1" y2="408" stroke="#f4f4f4"/>
<text x="192.1" y="424" text-anchor="middle" fill="#333">20</text>
<line x1="256.4" y1="54" x2="256.4" y2="408" stroke="#f4f4f4"/>
<text x="256.4" y="424" text-anchor="middle" fill="#333">30</text>
<line x1="320.7" y1="54" x2="320.7" y2="408" stroke="#f4f4f4"/>
<text x="320.7" y="424" text-anchor="middle" fill="#333">40</text>
<line x1="385.0" y1="54" x2="385.0" y2="408" stroke="#f4f4f4"/>
<text x="385.0" y="424" text-anchor="middle" fill="#333">50</text>
<line x1="449.3" y1="54" x2="449.3" y2="408" stroke="#f4f4f4"/>
<text x="449.3" y="424" text-anchor="middle" fill="#333">60</text>
<line x1="513.6" y1="54" x2="513.6" y2="408" stroke="#f4f4f4"/>
<text x="513.6" y="424" text-anchor="middle" fill="#333">70</text>
<line x1="577.9" y1="54" x2="577.9" y2="408" stroke="#f4f4f4"/>
<text x="577.9" y="424" text-anchor="middle" fill="#333">80</text>
<line x1="642.1" y1="54" x2="642.1" y2="408" stroke="#f4f4f4"/>
<text x="642.1" y="424" text-anchor="middle" fill="#333">90</text>
<line x1="700.0" y1="54" x2="700.0" y2="408" stroke="#f4f4f4"/>
<text x="700.0" y="424" text-anchor="middle" fill="#333">99</text>
<text x="385.0" y="446" text-anchor="middle">exact pick</text>
<text x="18" y="231.0" text-anchor="middle" transform="rotate(-90 18 231.0)">value (SCAR)</text>
<polyline points="70.0,195.4 76.4,212.9 82.9,221.2 89.3,236.5 95.7,255.0 102.1,276.6 108.6,288.7 115.0,298.8 121.4,304.4 127.9,305.9 134.3,309.0 140.7,314.6 147.1,322.4 153.6,331.0 160.0,337.6 166.4,341.7 172.9,344.6 179.3,346.9 185.7,349.1 192.1,351.1 198.6,353.2 205.0,355.3 211.4,357.5 217.9,359.7 224.3,361.7 230.7,363.5 237.1,365.1 243.6,366.5 250.0,367.7 256.4,368.7 262.9,369.7 269.3,370.8 275.7,371.8 282.1,372.8 288.6,373.9 295.0,375.0 301.4,376.2 307.9,377.3 314.3,378.3 320.7,379.3 327.1,380.3 333.6,381.2 340.0,382.0 346.4,382.8 352.9,383.5 359.3,384.1 365.7,384.7 372.1,385.3 378.6,385.7 385.0,386.3 391.4,386.8 397.9,387.2 404.3,387.6 410.7,388.0 417.1,388.4 423.6,388.8 430.0,389.1 436.4,389.5 442.9,389.8 449.3,390.0 455.7,390.2 462.1,390.5 468.6,390.7 475.0,391.0 481.4,391.1 487.9,391.4 494.3,391.5 500.7,391.7 507.1,391.9 513.6,392.1 520.0,392.3 526.4,392.5 532.9,392.6 539.3,392.8 545.7,392.9 552.1,393.1 558.6,393.3 565.0,393.5 571.4,393.6 577.9,393.8 584.3,394.0 590.7,394.2 597.1,394.4 603.6,394.5 610.0,394.7 616.4,394.8 622.9,395.1 629.3,395.2 635.7,395.3 642.1,395.5 648.6,395.5 655.0,395.7 661.4,395.8 667.9,395.9 674.3,395.9 680.7,396.0 687.1,396.1 693.6,396.2 700.0,396.3" fill="none" stroke="#000" stroke-width="1.8"/>
<rect x="714" y="58" width="16" height="3" fill="#000"/>
<text x="734" y="63" font-size="11">frozen PVC curve (predicted)</text>
<polyline points="70.0,231.0 76.4,223.9 82.9,235.2 89.3,243.5 95.7,266.0 102.1,303.2 108.6,315.6 115.0,305.7 121.4,303.2 127.9,308.0 134.3,311.6 140.7,310.0 147.1,314.5 153.6,326.1 160.0,337.1 166.4,342.1 172.9,340.7 179.3,336.5 185.7,333.9 192.1,334.5 198.6,337.5 205.0,341.4 211.4,345.3 217.9,348.6 224.3,350.8 230.7,352.1 237.1,352.9 243.6,353.9 250.0,355.7 256.4,358.2 262.9,361.3 269.3,364.4 275.7,367.1 282.1,369.2 288.6,370.6 295.0,371.4 301.4,371.9 307.9,372.2 314.3,372.7 320.7,373.5 327.1,374.6 333.6,375.9 340.0,377.5 346.4,379.2 352.9,380.8 359.3,382.4 365.7,383.8 372.1,385.1 378.6,386.2 385.0,387.2 391.4,388.2 397.9,389.1 404.3,390.0 410.7,390.9 417.1,391.8 423.6,392.8 430.0,393.7 436.4,394.6 442.9,395.4 449.3,396.1 455.7,396.8 462.1,397.4 468.6,397.9 475.0,398.4 481.4,398.8 487.9,399.1 494.3,399.5 500.7,399.8 507.1,400.0 513.6,400.3 520.0,400.6 526.4,400.8 532.9,401.0 539.3,401.2 545.7,401.4 552.1,401.7 558.6,401.9 565.0,402.1 571.4,402.4 577.9,402.7 584.3,403.0 590.7,403.4 597.1,403.7 603.6,404.1 610.0,404.5 616.4,404.9 622.9,405.2 629.3,405.6 635.7,405.9 642.1,406.3 648.6,406.6 655.0,406.8 661.4,407.1 667.9,407.3 674.3,407.5 680.7,407.6 687.1,407.8 693.6,407.9 700.0,408.0" fill="none" stroke="#1f77b4" stroke-width="1.8"/>
<rect x="714" y="78" width="16" height="3" fill="#1f77b4"/>
<text x="734" y="83" font-size="11">realized mean(vpath), smoothed</text>
<polyline points="70.0,63.9 76.4,54.0 82.9,73.9 89.3,83.7 95.7,106.9 102.1,166.3 108.6,188.6 115.0,170.9 121.4,169.0 127.9,182.8 134.3,196.0 140.7,197.3 147.1,205.7 153.6,224.9 160.0,242.4 166.4,249.1 172.9,244.4 179.3,235.4 185.7,230.2 192.1,232.6 198.6,241.1 205.0,252.3 211.4,262.9 217.9,270.9 224.3,275.4 230.7,276.7 237.1,276.4 243.6,276.4 250.0,278.0 256.4,281.7 262.9,287.0 269.3,293.0 275.7,298.5 282.1,302.9 288.6,305.9 295.0,307.6 301.4,308.5 307.9,308.9 314.3,309.5 320.7,310.6 327.1,312.3 333.6,314.6 340.0,317.5 346.4,320.8 352.9,324.1 359.3,327.5 365.7,330.7 372.1,333.7 378.6,336.6 385.0,339.3 391.4,341.8 397.9,344.3 404.3,346.8 410.7,349.2 417.1,351.5 423.6,353.7 430.0,355.7 436.4,357.6 442.9,359.2 449.3,360.6 455.7,361.8 462.1,362.8 468.6,363.7 475.0,364.5 481.4,365.1 487.9,365.7 494.3,366.2 500.7,366.7 507.1,367.2 513.6,367.6 520.0,368.0 526.4,368.4 532.9,368.7 539.3,369.0 545.7,369.3 552.1,369.7 558.6,370.0 565.0,370.4 571.4,370.9 577.9,371.4 584.3,372.0 590.7,372.6 597.1,373.3 603.6,374.1 610.0,374.9 616.4,375.7 622.9,376.5 629.3,377.2 635.7,377.9 642.1,378.6 648.6,379.2 655.0,379.7 661.4,380.2 667.9,380.7 674.3,381.0 680.7,381.4 687.1,381.6 693.6,381.9 700.0,382.1" fill="none" stroke="#2ca02c" stroke-width="1.8" stroke-dasharray="5 4"/>
<rect x="714" y="98" width="16" height="3" fill="#2ca02c"/>
<text x="734" y="103" font-size="11">realized peak (sens.)</text>
<text x="714" y="132" font-size="10" fill="#666">pick1=numeraire pin</text>
<text x="714" y="147" font-size="10" fill="#666">pick99=deep sink</text>
<text x="714" y="162" font-size="10" fill="#666">gross; busts full wt</text>
</svg>