<svg xmlns="http://www.w3.org/2000/svg" width="900" height="460" font-family="monospace" font-size="12">
<rect width="900" height="460" fill="white"/>
<text x="70" y="22" font-size="15" font-weight="bold">RIDER (ii) — cohort-bootstrap tail influence (raw resolution vs borrowed smoothing)</text>
<text x="70" y="40" font-size="11" fill="#555">resample unit=cohort; B=4000 seed=20260718; gap raw-vs-smoothed = confidence borrowed across picks</text>
<rect x="70" y="54" width="630" height="354" fill="none" stroke="#000"/>
<line x1="70" y1="408.0" x2="700" y2="408.0" stroke="#eee"/>
<text x="62" y="412.0" text-anchor="end" fill="#333">3.78</text>
<line x1="70" y1="337.2" x2="700" y2="337.2" stroke="#eee"/>
<text x="62" y="341.2" text-anchor="end" fill="#333">17.636</text>
<line x1="70" y1="266.4" x2="700" y2="266.4" stroke="#eee"/>
<text x="62" y="270.4" text-anchor="end" fill="#333">31.492</text>
<line x1="70" y1="195.6" x2="700" y2="195.6" stroke="#eee"/>
<text x="62" y="199.6" text-anchor="end" fill="#333">45.348</text>
<line x1="70" y1="124.8" x2="700" y2="124.8" stroke="#eee"/>
<text x="62" y="128.8" text-anchor="end" fill="#333">59.204</text>
<line x1="70" y1="54.0" x2="700" y2="54.0" stroke="#eee"/>
<text x="62" y="58.0" text-anchor="end" fill="#333">73.06</text>
<line x1="70.0" y1="54" x2="70.0" y2="408" stroke="#f4f4f4"/>
<text x="70.0" y="424" text-anchor="middle" fill="#333">1</text>
<line x1="192.1" y1="54" x2="192.1" y2="408" stroke="#f4f4f4"/>
<text x="192.1" y="424" text-anchor="middle" fill="#333">20</text>
<line x1="320.7" y1="54" x2="320.7" y2="408" stroke="#f4f4f4"/>
<text x="320.7" y="424" text-anchor="middle" fill="#333">40</text>
<line x1="385.0" y1="54" x2="385.0" y2="408" stroke="#f4f4f4"/>
<text x="385.0" y="424" text-anchor="middle" fill="#333">50</text>
<line x1="449.3" y1="54" x2="449.3" y2="408" stroke="#f4f4f4"/>
<text x="449.3" y="424" text-anchor="middle" fill="#333">60</text>
<line x1="513.6" y1="54" x2="513.6" y2="408" stroke="#f4f4f4"/>
<text x="513.6" y="424" text-anchor="middle" fill="#333">70</text>
<line x1="577.9" y1="54" x2="577.9" y2="408" stroke="#f4f4f4"/>
<text x="577.9" y="424" text-anchor="middle" fill="#333">80</text>
<line x1="642.1" y1="54" x2="642.1" y2="408" stroke="#f4f4f4"/>
<text x="642.1" y="424" text-anchor="middle" fill="#333">90</text>
<line x1="700.0" y1="54" x2="700.0" y2="408" stroke="#f4f4f4"/>
<text x="700.0" y="424" text-anchor="middle" fill="#333">99</text>
<text x="385.0" y="446" text-anchor="middle">exact pick</text>
<text x="18" y="231.0" text-anchor="middle" transform="rotate(-90 18 231.0)">cohort-bootstrap dispersion / swing  [rel %]</text>
<polyline points="70.0,380.9 76.4,369.5 82.9,363.1 89.3,330.4 95.7,376.7 102.1,354.5 108.6,358.0 115.0,333.0 121.4,360.7 127.9,347.9 134.3,357.4 140.7,356.8 147.1,349.1 153.6,331.5 160.0,358.3 166.4,355.3 172.9,334.4 179.3,342.7 185.7,314.3 192.1,329.7 198.6,300.1 205.0,287.8 211.4,320.1 217.9,334.1 224.3,297.3 230.7,283.1 237.1,343.4 243.6,315.5 250.0,303.2 256.4,326.6 262.9,332.5 269.3,330.6 275.7,306.5 282.1,307.8 288.6,270.0 295.0,342.8 301.4,337.6 307.9,280.2 314.3,305.0 320.7,290.5 327.1,314.1 333.6,330.9 340.0,281.5 346.4,292.7 352.9,258.2 359.3,274.3 365.7,322.7 372.1,294.9 378.6,268.8 385.0,246.9 391.4,314.5 397.9,266.8 404.3,308.6 410.7,322.3 417.1,225.1 423.6,305.2 430.0,297.2 436.4,254.1 442.9,298.4 449.3,181.5 455.7,298.6 462.1,303.8 468.6,278.7 475.0,268.0 481.4,223.2 487.9,258.0 494.3,286.5 500.7,264.7 507.1,297.2 513.6,205.6 520.0,241.4 526.4,237.5 532.9,122.1 539.3,238.5 545.7,250.5 552.1,259.9 558.6,234.6 565.0,210.9 571.4,262.4 577.9,227.7 584.3,238.9 590.7,284.1 597.1,202.4 603.6,310.6 610.0,179.7 616.4,281.1 622.9,62.5 629.3,243.6 635.7,97.7 642.1,255.4 648.6,237.0 655.0,213.5 661.4,327.6 667.9,236.1 674.3,201.9 680.7,260.3 687.1,170.5 693.6,253.1 700.0,385.4" fill="none" stroke="#d62728" stroke-width="1.8"/>
<rect x="714" y="58" width="16" height="3" fill="#d62728"/>
<text x="734" y="63" font-size="11">RAW per-exact-pick boot rel-SD %</text>
<polyline points="70.0,408.0 76.4,396.3 82.9,386.8 89.3,379.7 95.7,391.9 102.1,395.8 108.6,389.2 115.0,377.3 121.4,378.1 127.9,381.0 134.3,386.3 140.7,389.5 147.1,391.3 153.6,392.7 160.0,392.6 166.4,388.2 172.9,382.7 179.3,378.8 185.7,378.1 192.1,380.5 198.6,384.5 205.0,388.2 211.4,388.8 217.9,386.4 224.3,383.0 230.7,380.2 237.1,378.1 243.6,376.6 250.0,376.4 256.4,377.8 262.9,380.6 269.3,384.0 275.7,387.1 282.1,388.9 288.6,388.9 295.0,387.5 301.4,385.5 307.9,383.9 314.3,383.6 320.7,384.5 327.1,386.5 333.6,389.3 340.0,392.4 346.4,395.3 352.9,397.7 359.3,399.3 365.7,400.0 372.1,399.8 378.6,398.9 385.0,397.5 391.4,395.9 397.9,394.3 404.3,392.8 410.7,391.4 417.1,390.4 423.6,389.6 430.0,389.0 436.4,388.6 442.9,388.3 449.3,388.0 455.7,387.6 462.1,387.0 468.6,386.3 475.0,385.6 481.4,384.9 487.9,384.1 494.3,383.5 500.7,383.0 507.1,382.7 513.6,382.5 520.0,382.5 526.4,382.7 532.9,383.0 539.3,383.6 545.7,384.3 552.1,385.2 558.6,386.2 565.0,387.3 571.4,388.4 577.9,389.6 584.3,390.6 590.7,391.5 597.1,392.3 603.6,393.0 610.0,393.6 616.4,394.2 622.9,394.7 629.3,395.2 635.7,395.7 642.1,396.2 648.6,396.7 655.0,397.2 661.4,397.6 667.9,398.0 674.3,398.3 680.7,398.6 687.1,398.9 693.6,399.0 700.0,399.1" fill="none" stroke="#1f77b4" stroke-width="1.8"/>
<rect x="714" y="78" width="16" height="3" fill="#1f77b4"/>
<text x="734" y="83" font-size="11">SMOOTHED (borrowed) boot rel-SD %</text>
<polyline points="70.0,400.0 76.4,401.8 82.9,397.4 89.3,367.5 95.7,398.8 102.1,392.1 108.6,396.3 115.0,369.1 121.4,391.9 127.9,373.8 134.3,378.4 140.7,381.6 147.1,365.3 153.6,358.3 160.0,393.3 166.4,376.6 172.9,363.2 179.3,382.7 185.7,335.4 192.1,355.4 198.6,333.2 205.0,297.5 211.4,357.2 217.9,368.7 224.3,325.1 230.7,288.9 237.1,386.0 243.6,359.6 250.0,345.7 256.4,370.0 262.9,360.3 269.3,367.1 275.7,326.2 282.1,337.3 288.6,290.3 295.0,371.8 301.4,369.3 307.9,324.5 314.3,350.5 320.7,324.2 327.1,363.5 333.6,381.5 340.0,306.8 346.4,317.3 352.9,305.0 359.3,325.8 365.7,352.5 372.1,334.3 378.6,287.1 385.0,255.1 391.4,356.0 397.9,314.8 404.3,372.7 410.7,369.7 417.1,292.3 423.6,350.1 430.0,354.8 436.4,265.2 442.9,317.5 449.3,175.9 455.7,335.8 462.1,329.9 468.6,302.5 475.0,306.6 481.4,266.8 487.9,263.1 494.3,320.4 500.7,319.7 507.1,343.1 513.6,209.2 520.0,248.4 526.4,255.0 532.9,116.0 539.3,254.2 545.7,294.8 552.1,302.7 558.6,295.9 565.0,239.1 571.4,305.7 577.9,278.0 584.3,241.0 590.7,345.6 597.1,223.8 603.6,354.6 610.0,183.9 616.4,303.1 622.9,54.0 629.3,269.4 635.7,91.7 642.1,297.4 648.6,296.9 655.0,279.4 661.4,382.0 667.9,297.8 674.3,248.7 680.7,278.3 687.1,205.4 693.6,299.1 700.0,407.2" fill="none" stroke="#ff7f0e" stroke-width="1.8" stroke-dasharray="5 4"/>
<rect x="714" y="98" width="16" height="3" fill="#ff7f0e"/>
<text x="734" y="103" font-size="11">single-player max swing %</text>
<text x="714" y="132" font-size="10" fill="#666">RAW = finest resolution</text>
<text x="714" y="147" font-size="10" fill="#666">SMOOTHED borrows</text>
<text x="714" y="162" font-size="10" fill="#666">pick99 = deep sink</text>
<text x="714" y="177" font-size="10" fill="#666">no decile bands</text>
</svg>