<svg xmlns="http://www.w3.org/2000/svg" width="900" height="460" font-family="monospace" font-size="12">
<rect width="900" height="460" fill="white"/>
<text x="70" y="22" font-size="15" font-weight="bold">Rider (iv) — deep-tail premium-over-free-pool, grade overlaid</text>
<text x="70" y="40" font-size="11" fill="#555">v-R past p50 for each R candidate; grey dashed = rider-(iii) curve uncertainty (right-scaled)</text>
<rect x="70" y="54" width="630" height="354" fill="none" stroke="#000"/>
<line x1="70" y1="408.0" x2="700" y2="408.0" stroke="#eee"/>
<text x="62" y="412.0" text-anchor="end" fill="#333">-7.8</text>
<line x1="70" y1="337.2" x2="700" y2="337.2" stroke="#eee"/>
<text x="62" y="341.2" text-anchor="end" fill="#333">70.06</text>
<line x1="70" y1="266.4" x2="700" y2="266.4" stroke="#eee"/>
<text x="62" y="270.4" text-anchor="end" fill="#333">147.92</text>
<line x1="70" y1="195.6" x2="700" y2="195.6" stroke="#eee"/>
<text x="62" y="199.6" text-anchor="end" fill="#333">225.78</text>
<line x1="70" y1="124.8" x2="700" y2="124.8" stroke="#eee"/>
<text x="62" y="128.8" text-anchor="end" fill="#333">303.64</text>
<line x1="70" y1="54.0" x2="700" y2="54.0" stroke="#eee"/>
<text x="62" y="58.0" text-anchor="end" fill="#333">381.5</text>
<line x1="70.0" y1="54" x2="70.0" y2="408" stroke="#f4f4f4"/>
<text x="70.0" y="424" text-anchor="middle" fill="#333">50</text>
<line x1="198.6" y1="54" x2="198.6" y2="408" stroke="#f4f4f4"/>
<text x="198.6" y="424" text-anchor="middle" fill="#333">60</text>
<line x1="327.1" y1="54" x2="327.1" y2="408" stroke="#f4f4f4"/>
<text x="327.1" y="424" text-anchor="middle" fill="#333">70</text>
<line x1="455.7" y1="54" x2="455.7" y2="408" stroke="#f4f4f4"/>
<text x="455.7" y="424" text-anchor="middle" fill="#333">80</text>
<line x1="584.3" y1="54" x2="584.3" y2="408" stroke="#f4f4f4"/>
<text x="584.3" y="424" text-anchor="middle" fill="#333">90</text>
<line x1="610.0" y1="54" x2="610.0" y2="408" stroke="#f4f4f4"/>
<text x="610.0" y="424" text-anchor="middle" fill="#333">92</text>
<line x1="700.0" y1="54" x2="700.0" y2="408" stroke="#f4f4f4"/>
<text x="700.0" y="424" text-anchor="middle" fill="#333">99</text>
<text x="385.0" y="446" text-anchor="middle">exact pick (deep tail, past ~p50)</text>
<text x="18" y="231.0" text-anchor="middle" transform="rotate(-90 18 231.0)">premium v-R (SCAR units)</text>
<line x1="70" y1="400.9" x2="700" y2="400.9" stroke="#999" stroke-dasharray="4 3"/>
<polyline points="70.0,293.4 82.9,298.9 95.7,304.3 108.6,308.9 121.4,313.4 134.3,318.0 147.1,322.5 160.0,326.2 172.9,329.8 185.7,333.4 198.6,336.2 211.4,338.9 224.3,341.6 237.1,344.3 250.0,347.1 262.9,348.9 275.7,351.6 288.6,353.4 301.4,356.2 314.3,358.0 327.1,359.8 340.0,362.5 352.9,364.4 365.7,366.2 378.6,368.0 391.4,369.8 404.3,371.6 417.1,373.4 430.0,376.2 442.9,378.0 455.7,379.8 468.6,381.6 481.4,384.4 494.3,386.2 507.1,388.0 520.0,389.8 532.9,391.6 545.7,394.4 558.6,395.3 571.4,397.1 584.3,398.9 597.1,399.8 610.0,401.6 622.9,402.5 635.7,403.5 648.6,404.4 661.4,405.3 674.3,406.2 687.1,407.1 700.0,408.0" fill="none" stroke="#1f77b4" stroke-width="1.8"/>
<rect x="714" y="58" width="16" height="3" fill="#1f77b4"/>
<text x="734" y="63" font-size="11">premium v-R_curve</text>
<polyline points="70.0,54.0 82.9,59.5 95.7,64.9 108.6,69.5 121.4,74.0 134.3,78.6 147.1,83.1 160.0,86.7 172.9,90.4 185.7,94.0 198.6,96.7 211.4,99.5 224.3,102.2 237.1,104.9 250.0,107.7 262.9,109.5 275.7,112.2 288.6,114.0 301.4,116.7 314.3,118.6 327.1,120.4 340.0,123.1 352.9,124.9 365.7,126.7 378.6,128.6 391.4,130.4 404.3,132.2 417.1,134.0 430.0,136.7 442.9,138.6 455.7,140.4 468.6,142.2 481.4,144.9 494.3,146.8 507.1,148.6 520.0,150.4 532.9,152.2 545.7,154.9 558.6,155.8 571.4,157.7 584.3,159.5 597.1,160.4 610.0,162.2 622.9,163.1 635.7,164.0 648.6,164.9 661.4,165.8 674.3,166.8 687.1,167.7 700.0,168.6" fill="none" stroke="#d62728" stroke-width="1.8"/>
<rect x="714" y="78" width="16" height="3" fill="#d62728"/>
<text x="734" y="83" font-size="11">premium v-R_realized</text>
<polyline points="70.0,65.4 82.9,70.8 95.7,76.3 108.6,80.8 121.4,85.4 134.3,89.9 147.1,94.5 160.0,98.1 172.9,101.7 185.7,105.4 198.6,108.1 211.4,110.8 224.3,113.6 237.1,116.3 250.0,119.0 262.9,120.8 275.7,123.6 288.6,125.4 301.4,128.1 314.3,129.9 327.1,131.7 340.0,134.5 352.9,136.3 365.7,138.1 378.6,139.9 391.4,141.7 404.3,143.6 417.1,145.4 430.0,148.1 442.9,149.9 455.7,151.8 468.6,153.6 481.4,156.3 494.3,158.1 507.1,159.9 520.0,161.8 532.9,163.6 545.7,166.3 558.6,167.2 571.4,169.0 584.3,170.8 597.1,171.8 610.0,173.6 622.9,174.5 635.7,175.4 648.6,176.3 661.4,177.2 674.3,178.1 687.1,179.0 700.0,179.9" fill="none" stroke="#2ca02c" stroke-width="1.8"/>
<rect x="714" y="98" width="16" height="3" fill="#2ca02c"/>
<text x="734" y="103" font-size="11">premium v-R_owner</text>
<polyline points="70.0,408.0 82.9,404.1 95.7,399.3 108.6,393.2 121.4,385.7 134.3,376.7 147.1,366.8 160.0,355.9 172.9,344.8 185.7,333.3 198.6,321.6 211.4,309.6 224.3,296.9 237.1,283.4 250.0,268.6 262.9,252.7 275.7,236.1 288.6,219.0 301.4,201.8 314.3,184.9 327.1,169.6 340.0,155.4 352.9,143.4 365.7,133.2 378.6,124.4 391.4,117.2 404.3,111.2 417.1,105.5 430.0,100.4 442.9,94.9 455.7,89.5 468.6,83.8 481.4,77.8 494.3,72.4 507.1,66.9 520.0,62.4 532.9,58.5 545.7,55.8 558.6,54.3 571.4,54.0 584.3,54.9 597.1,56.4 610.0,59.1 622.9,62.4 635.7,66.3 648.6,70.9 661.4,75.4 674.3,80.2 687.1,85.0 700.0,89.5" fill="none" stroke="#888" stroke-width="1.8" stroke-dasharray="5 4"/>
<rect x="714" y="118" width="16" height="3" fill="#888"/>
<text x="734" y="123" font-size="11">rider-iii grade % [28.1-39.8%, right-scaled]</text>
<text x="714" y="152" font-size="10" fill="#666">free-pool entry at pk90/92 (grade ~40.0%, ~2.16x top)</text>
<text x="714" y="167" font-size="10" fill="#666">under R_curve the premium collapses to ~0 at the entry (self-consistent, not a verdict)</text>
</svg>