<svg xmlns="http://www.w3.org/2000/svg" width="900" height="460" font-family="monospace" font-size="12">
<rect width="900" height="460" fill="white"/>
<text x="70" y="22" font-size="15" font-weight="bold">Rider (iv) — GROSS vs v-R, full board (three R candidates)</text>
<text x="70" y="40" font-size="11" fill="#555">stamps: pin=a90052ad curve_payload=89c14729 store_base=968de0c7 per_entrant=40d7da7c (five-migration head; read-only; as</text>
<rect x="70" y="54" width="630" height="354" fill="none" stroke="#000"/>
<line x1="70" y1="408.0" x2="700" y2="408.0" stroke="#eee"/>
<text x="62" y="412.0" text-anchor="end" fill="#333">-7.8</text>
<line x1="70" y1="337.2" x2="700" y2="337.2" stroke="#eee"/>
<text x="62" y="341.2" text-anchor="end" fill="#333">593.76</text>
<line x1="70" y1="266.4" x2="700" y2="266.4" stroke="#eee"/>
<text x="62" y="270.4" text-anchor="end" fill="#333">1195.32</text>
<line x1="70" y1="195.6" x2="700" y2="195.6" stroke="#eee"/>
<text x="62" y="199.6" text-anchor="end" fill="#333">1796.88</text>
<line x1="70" y1="124.8" x2="700" y2="124.8" stroke="#eee"/>
<text x="62" y="128.8" text-anchor="end" fill="#333">2398.44</text>
<line x1="70" y1="54.0" x2="700" y2="54.0" stroke="#eee"/>
<text x="62" y="58.0" text-anchor="end" fill="#333">3000</text>
<line x1="70.0" y1="54" x2="70.0" y2="408" stroke="#f4f4f4"/>
<text x="70.0" y="424" text-anchor="middle" fill="#333">1</text>
<line x1="192.1" y1="54" x2="192.1" y2="408" stroke="#f4f4f4"/>
<text x="192.1" y="424" text-anchor="middle" fill="#333">20</text>
<line x1="320.7" y1="54" x2="320.7" y2="408" stroke="#f4f4f4"/>
<text x="320.7" y="424" text-anchor="middle" fill="#333">40</text>
<line x1="449.3" y1="54" x2="449.3" y2="408" stroke="#f4f4f4"/>
<text x="449.3" y="424" text-anchor="middle" fill="#333">60</text>
<line x1="577.9" y1="54" x2="577.9" y2="408" stroke="#f4f4f4"/>
<text x="577.9" y="424" text-anchor="middle" fill="#333">80</text>
<line x1="642.1" y1="54" x2="642.1" y2="408" stroke="#f4f4f4"/>
<text x="642.1" y="424" text-anchor="middle" fill="#333">90</text>
<line x1="700.0" y1="54" x2="700.0" y2="408" stroke="#f4f4f4"/>
<text x="700.0" y="424" text-anchor="middle" fill="#333">99</text>
<text x="385.0" y="446" text-anchor="middle">exact pick</text>
<text x="18" y="231.0" text-anchor="middle" transform="rotate(-90 18 231.0)">value (SCAR units)</text>
<line x1="70" y1="407.1" x2="700" y2="407.1" stroke="#999" stroke-dasharray="4 3"/>
<polyline points="70.0,54.0 76.4,80.0 82.9,92.3 89.3,115.1 95.7,142.6 102.1,174.8 108.6,192.6 115.0,207.7 121.4,215.9 127.9,218.3 134.3,222.9 140.7,231.1 147.1,242.8 153.6,255.6 160.0,265.4 166.4,271.5 172.9,275.7 179.3,279.3 185.7,282.4 192.1,285.4 198.6,288.6 205.0,291.7 211.4,295.0 217.9,298.2 224.3,301.2 230.7,303.9 237.1,306.2 243.6,308.3 250.0,310.1 256.4,311.6 262.9,313.2 269.3,314.7 275.7,316.2 282.1,317.8 288.6,319.4 295.0,321.0 301.4,322.7 307.9,324.3 314.3,325.9 320.7,327.4 327.1,328.9 333.6,330.2 340.0,331.4 346.4,332.6 352.9,333.6 359.3,334.6 365.7,335.4 372.1,336.2 378.6,336.9 385.0,337.8 391.4,338.5 397.9,339.2 404.3,339.8 410.7,340.3 417.1,340.9 423.6,341.5 430.0,342.0 436.4,342.5 442.9,342.9 449.3,343.3 455.7,343.6 462.1,344.0 468.6,344.4 475.0,344.7 481.4,344.9 487.9,345.3 494.3,345.5 500.7,345.9 507.1,346.1 513.6,346.4 520.0,346.7 526.4,346.9 532.9,347.2 539.3,347.4 545.7,347.6 552.1,347.9 558.6,348.1 565.0,348.5 571.4,348.7 577.9,348.9 584.3,349.2 590.7,349.5 597.1,349.8 603.6,350.0 610.0,350.2 616.4,350.5 622.9,350.8 629.3,350.9 635.7,351.2 642.1,351.4 648.6,351.5 655.0,351.8 661.4,351.9 667.9,352.0 674.3,352.1 680.7,352.2 687.1,352.4 693.6,352.5 700.0,352.6" fill="none" stroke="#111" stroke-width="1.8"/>
<rect x="714" y="58" width="16" height="3" fill="#111"/>
<text x="734" y="63" font-size="11">GROSS = v2(p)</text>
<polyline points="70.0,109.4 76.4,135.4 82.9,147.7 89.3,170.5 95.7,198.0 102.1,230.2 108.6,248.1 115.0,263.1 121.4,271.4 127.9,273.7 134.3,278.3 140.7,286.5 147.1,298.2 153.6,311.0 160.0,320.8 166.4,326.9 172.9,331.1 179.3,334.7 185.7,337.9 192.1,340.8 198.6,344.0 205.0,347.2 211.4,350.4 217.9,353.6 224.3,356.6 230.7,359.3 237.1,361.6 243.6,363.7 250.0,365.5 256.4,367.0 262.9,368.6 269.3,370.1 275.7,371.6 282.1,373.2 288.6,374.8 295.0,376.5 301.4,378.1 307.9,379.8 314.3,381.3 320.7,382.8 327.1,384.3 333.6,385.6 340.0,386.8 346.4,388.0 352.9,389.1 359.3,390.0 365.7,390.8 372.1,391.6 378.6,392.3 385.0,393.2 391.4,393.9 397.9,394.6 404.3,395.2 410.7,395.8 417.1,396.3 423.6,396.9 430.0,397.4 436.4,397.9 442.9,398.3 449.3,398.7 455.7,399.1 462.1,399.4 468.6,399.8 475.0,400.1 481.4,400.3 487.9,400.7 494.3,400.9 500.7,401.3 507.1,401.5 513.6,401.8 520.0,402.1 526.4,402.4 532.9,402.6 539.3,402.8 545.7,403.1 552.1,403.3 558.6,403.5 565.0,403.9 571.4,404.1 577.9,404.4 584.3,404.6 590.7,404.9 597.1,405.2 603.6,405.4 610.0,405.6 616.4,405.9 622.9,406.2 629.3,406.4 635.7,406.6 642.1,406.8 648.6,406.9 655.0,407.2 661.4,407.3 667.9,407.4 674.3,407.5 680.7,407.6 687.1,407.8 693.6,407.9 700.0,408.0" fill="none" stroke="#1f77b4" stroke-width="1.8" stroke-dasharray="5 4"/>
<rect x="714" y="78" width="16" height="3" fill="#1f77b4"/>
<text x="734" y="83" font-size="11">v-R_curve (R=470.8)</text>
<polyline points="70.0,78.4 76.4,104.4 82.9,116.7 89.3,139.5 95.7,167.0 102.1,199.2 108.6,217.1 115.0,232.1 121.4,240.4 127.9,242.7 134.3,247.3 140.7,255.6 147.1,267.2 153.6,280.0 160.0,289.8 166.4,295.9 172.9,300.2 179.3,303.7 185.7,306.9 192.1,309.8 198.6,313.0 205.0,316.2 211.4,319.5 217.9,322.6 224.3,325.6 230.7,328.3 237.1,330.6 243.6,332.8 250.0,334.5 256.4,336.1 262.9,337.6 269.3,339.1 275.7,340.6 282.1,342.2 288.6,343.8 295.0,345.5 301.4,347.1 307.9,348.8 314.3,350.3 320.7,351.8 327.1,353.4 333.6,354.6 340.0,355.8 346.4,357.0 352.9,358.1 359.3,359.0 365.7,359.8 372.1,360.7 378.6,361.4 385.0,362.2 391.4,362.9 397.9,363.6 404.3,364.2 410.7,364.8 417.1,365.4 423.6,365.9 430.0,366.4 436.4,366.9 442.9,367.4 449.3,367.7 455.7,368.1 462.1,368.4 468.6,368.8 475.0,369.1 481.4,369.4 487.9,369.7 494.3,369.9 500.7,370.3 507.1,370.5 513.6,370.8 520.0,371.1 526.4,371.4 532.9,371.6 539.3,371.8 545.7,372.1 552.1,372.3 558.6,372.5 565.0,372.9 571.4,373.1 577.9,373.4 584.3,373.6 590.7,374.0 597.1,374.2 603.6,374.4 610.0,374.7 616.4,374.9 622.9,375.2 629.3,375.4 635.7,375.6 642.1,375.8 648.6,376.0 655.0,376.2 661.4,376.3 667.9,376.4 674.3,376.5 680.7,376.7 687.1,376.8 693.6,376.9 700.0,377.0" fill="none" stroke="#d62728" stroke-width="1.8" stroke-dasharray="5 4"/>
<rect x="714" y="98" width="16" height="3" fill="#d62728"/>
<text x="734" y="103" font-size="11">v-R_realized (R=207.5)</text>
<polyline points="70.0,79.9 76.4,105.9 82.9,118.1 89.3,141.0 95.7,168.5 102.1,200.6 108.6,218.5 115.0,233.6 121.4,241.8 127.9,244.2 134.3,248.8 140.7,257.0 147.1,268.7 153.6,281.5 160.0,291.3 166.4,297.4 172.9,301.6 179.3,305.2 185.7,308.3 192.1,311.3 198.6,314.5 205.0,317.6 211.4,320.9 217.9,324.1 224.3,327.1 230.7,329.8 237.1,332.1 243.6,334.2 250.0,336.0 256.4,337.5 262.9,339.1 269.3,340.6 275.7,342.1 282.1,343.6 288.6,345.3 295.0,346.9 301.4,348.6 307.9,350.2 314.3,351.8 320.7,353.3 327.1,354.8 333.6,356.1 340.0,357.3 346.4,358.5 352.9,359.5 359.3,360.5 365.7,361.3 372.1,362.1 378.6,362.8 385.0,363.7 391.4,364.4 397.9,365.1 404.3,365.7 410.7,366.2 417.1,366.8 423.6,367.4 430.0,367.9 436.4,368.4 442.9,368.8 449.3,369.2 455.7,369.5 462.1,369.9 468.6,370.2 475.0,370.6 481.4,370.8 487.9,371.2 494.3,371.4 500.7,371.8 507.1,372.0 513.6,372.2 520.0,372.6 526.4,372.8 532.9,373.1 539.3,373.3 545.7,373.5 552.1,373.8 558.6,374.0 565.0,374.4 571.4,374.6 577.9,374.8 584.3,375.1 590.7,375.4 597.1,375.7 603.6,375.9 610.0,376.1 616.4,376.4 622.9,376.7 629.3,376.8 635.7,377.1 642.1,377.3 648.6,377.4 655.0,377.7 661.4,377.8 667.9,377.9 674.3,378.0 680.7,378.1 687.1,378.2 693.6,378.4 700.0,378.5" fill="none" stroke="#2ca02c" stroke-width="1.8" stroke-dasharray="5 4"/>
<rect x="714" y="118" width="16" height="3" fill="#2ca02c"/>
<text x="734" y="123" font-size="11">v-R_owner (R=220)</text>
<text x="714" y="152" font-size="10" fill="#666">REPORT-ONLY / DO-NOT-MERGE  ·  no verdict — the reading is the owner's</text>
<text x="714" y="167" font-size="10" fill="#666">production bars and list-space R are orthogonal (R107.7); v2.11 bakes GROSS either way; making v-R the traded currency is the named post-v2.11 chapter, on the owner's word.</text>
</svg>